PathFileType	4	(X/Y/Z)	./resultDataOpenSim/trcMotMarkerGrf/sub06/qtm-13-05.trc
DataRate	CameraRate	NumFrames	NumMarkers	Units	OrigDataRate	OrigDataStartFrame	OrigNumFrames
250.000000	250.000000	13	24	m	250.000000	370	493
Frame#	Time	L.Toe.Tip			R.Toe.Tip			L.Ankle.Lat			R.Ankle.Lat			L.Ankle.Med			R.Ankle.Med			L.Heel			R.Heel			L.Knee.Lat			R.Knee.Lat			L.Knee.Med			R.Knee.Med			L.Thigh.Upper			R.Thigh.Upper			L.ASIS			R.ASIS			V.Sacral			L.Acromium			R.Acromium			C7			L.Elbow			R.Elbow			L.Wrist.Lat			R.Wrist.Lat
		X1	Y1	Z1	X2	Y2	Z2	X3	Y3	Z3	X4	Y4	Z4	X5	Y5	Z5	X6	Y6	Z6	X7	Y7	Z7	X8	Y8	Z8	X9	Y9	Z9	X10	Y10	Z10	X11	Y11	Z11	X12	Y12	Z12	X13	Y13	Z13	X14	Y14	Z14	X15	Y15	Z15	X16	Y16	Z16	X17	Y17	Z17	X18	Y18	Z18	X19	Y19	Z19	X20	Y20	Z20	X21	Y21	Z21	X22	Y22	Z22	X23	Y23	Z23	X24	Y24	Z24

370	1.476	1.5513757	0.11037826	-0.082076695	0.95259853	0.035070273	0.11548225	1.4227431	0.10064197	-0.091556368	0.83184828	0.10226728	0.13185943	1.4306759	0.11825351	-0.0080541722	0.8642949	0.1168087	0.047538215	1.3699698	0.048184802	-0.040696228	0.77991746	0.099857981	0.068371653	1.3424024	0.46423945	-0.090872291	1.0199533	0.44827413	0.16164387	1.3271311	0.45794056	0.0307296	1.0002215	0.44617468	0.030634329	1.1679968	0.81860018	-0.13222862	1.114968	0.80052062	0.21370313	1.2308819	0.86532443	-0.077904752	1.2208342	0.85283086	0.17019199	1.0417827	0.93168253	0.045334131	1.1487042	1.3383805	-0.13624329	1.1812017	1.3332623	0.22208359	1.0897135	1.3720807	0.050688149	1.0282262	1.0483084	-0.18024307	1.2045809	1.0132441	0.32003114	1.0962886	0.82340091	-0.23869209	1.4424525	1.0456501	0.23524251
371	1.48	1.5645024	0.1138734	-0.081881372	0.95271313	0.035071878	0.11554514	1.436192	0.10113999	-0.091242754	0.83274522	0.10322846	0.132253	1.4431528	0.11869204	-0.0077230254	0.86509869	0.11756038	0.047927615	1.3842891	0.047524899	-0.040541071	0.78063541	0.1014018	0.068898784	1.3479513	0.46177801	-0.090545062	1.0242634	0.44754522	0.16162592	1.3319109	0.45518276	0.031541935	1.0045455	0.44556047	0.030590993	1.1752367	0.81693834	-0.13251275	1.1212223	0.79894488	0.21358995	1.238031	0.86369588	-0.078112477	1.2270471	0.85104314	0.16998452	1.0485568	0.93013285	0.04490152	1.1548213	1.3366762	-0.13682938	1.1873633	1.3317723	0.2215593	1.0957844	1.3706262	0.050027617	1.0335461	1.0471571	-0.18044484	1.2115349	1.011843	0.3198278	1.0997038	0.82187167	-0.23940841	1.4488628	1.0459109	0.23424951
372	1.484	1.5769469	0.11699717	-0.08163539	0.95283737	0.035082748	0.11561558	1.4489139	0.10164563	-0.090866507	0.83371048	0.10423666	0.13267049	1.4547559	0.11901698	-0.0073634838	0.86599143	0.11834166	0.048280727	1.3977945	0.046978951	-0.040333564	0.78144392	0.10301669	0.069430453	1.3537641	0.45947924	-0.090239819	1.0287181	0.44677598	0.16162086	1.3367683	0.45250926	0.03235466	1.0090147	0.44488592	0.030567443	1.182556	0.81523246	-0.13279209	1.1265322	0.7975804	0.21314443	1.2451731	0.86205004	-0.078279175	1.2333071	0.8492298	0.16979044	1.0553	0.92858085	0.04420237	1.1609695	1.3349458	-0.13743894	1.1935335	1.3302658	0.22101572	1.1018002	1.3692385	0.04929874	1.0389704	1.0459451	-0.18068911	1.2184541	1.0103701	0.31965574	1.1032853	0.82031653	-0.24012242	1.4552276	1.0460022	0.23328155
373	1.488	1.5887644	0.11957378	-0.081300579	0.95297041	0.035100352	0.11569172	1.4609121	0.1020729	-0.090429358	0.83473563	0.10530264	0.13311372	1.4654846	0.11916175	-0.0069609977	0.86699894	0.11913777	0.048639172	1.4104697	0.046457578	-0.040074176	0.78234144	0.10471447	0.069973089	1.3598682	0.45737919	-0.089924068	1.0333243	0.44596399	0.16163105	1.3417282	0.44995812	0.033163369	1.0136262	0.44415137	0.030560231	1.1899434	0.81349011	-0.13307295	1.1307576	0.79638903	0.21237351	1.2523335	0.86038502	-0.078424127	1.239613	0.84739569	0.16960825	1.0620768	0.9270436	0.043294164	1.1671445	1.3331959	-0.13807738	1.1996797	1.3287572	0.22045202	1.1078183	1.3678714	0.048538813	1.0444852	1.0446964	-0.18098672	1.2253536	1.0088076	0.31952055	1.1070338	0.8187407	-0.24082925	1.461557	1.0459226	0.23235426
374	1.492	1.5999197	0.12153661	-0.080839654	0.95311123	0.035115576	0.11576815	1.4722151	0.10235069	-0.089939903	0.83581008	0.10643182	0.13358391	1.4755244	0.11913135	-0.0064827488	0.86813931	0.11994215	0.04906218	1.4223035	0.045888375	-0.039750895	0.78331729	0.1065081	0.070538636	1.3662789	0.45550408	-0.08956738	1.0380806	0.44510891	0.16165355	1.3468127	0.44754588	0.033954978	1.0183864	0.44336687	0.030571427	1.1973871	0.81171594	-0.13335716	1.1345086	0.79521377	0.21143341	1.2595278	0.85869982	-0.078563422	1.2459635	0.84555628	0.16943821	1.0689533	0.92552061	0.042238951	1.1733507	1.33143	-0.13874583	1.2057902	1.3272559	0.21986967	1.1139143	1.3664538	0.04778495	1.0500869	1.0434532	-0.18132837	1.2322147	1.007187	0.31937905	1.1109405	0.81714897	-0.24152731	1.4678508	1.0456727	0.23147559
375	1.496	1.6103448	0.12286782	-0.080204592	0.95326032	0.035117847	0.11584332	1.4828526	0.10242086	-0.089399881	0.83693633	0.10761452	0.13407215	1.4851494	0.11896877	-0.0059015194	0.86935604	0.12079751	0.049543583	1.4332923	0.045220694	-0.039354582	0.78436655	0.10840139	0.07113567	1.3730005	0.45387893	-0.089149587	1.0429824	0.44421739	0.16168842	1.3520464	0.44527817	0.034703145	1.023311	0.44254221	0.030610183	1.2048778	0.80991737	-0.13363829	1.1384954	0.79394656	0.21047602	1.2667614	0.85699534	-0.078708123	1.2523588	0.84372741	0.16927923	1.0759483	0.92399307	0.041115589	1.1795964	1.3296519	-0.13944145	1.2119025	1.3257554	0.21927605	1.1201122	1.3649682	0.047038341	1.0557806	1.0422394	-0.1816984	1.2389901	1.0055675	0.31916548	1.1149975	0.81554263	-0.24223014	1.4740993	1.0452583	0.230639
376	1.5	1.6200242	0.12359133	-0.079362104	0.95342189	0.035102401	0.11592267	1.4928095	0.10223281	-0.088791422	0.83812888	0.10883824	0.13456942	1.4944685	0.11867174	-0.0052111786	0.87054983	0.12177025	0.050018422	1.4434359	0.044418234	-0.038886802	0.78549947	0.11039042	0.071763391	1.3800228	0.45251644	-0.088673236	1.0480375	0.44329613	0.16174727	1.3574674	0.44316911	0.035377761	1.0284125	0.44167587	0.030683533	1.2124106	0.80810918	-0.13390898	1.1433288	0.79256078	0.20962268	1.2740315	0.85527202	-0.078859372	1.2587867	0.84192031	0.16912875	1.0829943	0.92244405	0.040053689	1.1858846	1.327869	-0.14015914	1.2180758	1.3242403	0.21867487	1.1263935	1.3634473	0.046283932	1.0615675	1.0410192	-0.18209082	1.2456512	1.0039805	0.31885495	1.1192058	0.81392123	-0.24295208	1.4802899	1.0446883	0.2298273
377	1.504	1.6289971	0.12375367	-0.078307411	0.95360188	0.035073452	0.1160122	1.5020387	0.10174479	-0.088095921	0.83940237	0.11011194	0.13508177	1.5033791	0.11817756	-0.0044278455	0.87172345	0.12286347	0.050468101	1.452737	0.043448115	-0.038360939	0.78673417	0.11247278	0.072413777	1.3873073	0.45139803	-0.088163538	1.053259	0.44234316	0.16184135	1.3631006	0.4412476	0.035949124	1.0336892	0.44075659	0.030793084	1.2199856	0.80631684	-0.13416806	1.1496066	0.79104762	0.20899758	1.2813265	0.85353268	-0.079011402	1.2652151	0.84014941	0.16898641	1.0899971	0.92087256	0.039174206	1.1922166	1.3260892	-0.1408949	1.2243326	1.3227062	0.21806147	1.1327375	1.3619176	0.045517571	1.0674456	1.039728	-0.18250717	1.2521988	1.0024204	0.31847734	1.1235739	0.81228594	-0.24368713	1.4864201	1.0439651	0.2290287
378	1.508	1.6373012	0.12338314	-0.077060057	0.95380543	0.035041346	0.1161154	1.5105259	0.1009252	-0.087327045	0.84077245	0.11145554	0.13562446	1.5116916	0.11740035	-0.0035922874	0.87298858	0.12401691	0.050945382	1.4612075	0.042273489	-0.03780493	0.78808592	0.11465012	0.073078147	1.3947793	0.45047095	-0.087651109	1.0586487	0.44135303	0.16196947	1.3689429	0.43954947	0.036394833	1.039132	0.43977464	0.030941304	1.2275991	0.80456783	-0.13441945	1.1575954	0.78940741	0.20866093	1.2886344	0.85178384	-0.079165559	1.2716232	0.8384349	0.16885942	1.0969279	0.91928699	0.038490964	1.1985949	1.3243172	-0.1416494	1.2306554	1.3211627	0.21743255	1.1391248	1.3603773	0.044733694	1.0734127	1.0383412	-0.18295006	1.2586345	1.0008693	0.31807229	1.1281087	0.81064147	-0.24441611	1.492496	1.043086	0.228246
379	1.512	1.6449472	0.1224785	-0.075655274	0.9540347	0.035015079	0.11623603	1.5183028	0.099751973	-0.086524025	0.84225353	0.1128736	0.1362067	1.5192472	0.11626724	-0.0027557425	0.87443639	0.1251826	0.051501079	1.4688667	0.040860446	-0.037245592	0.78955889	0.11692592	0.073759488	1.4023416	0.44966245	-0.087158144	1.0641964	0.44032545	0.16212332	1.3749946	0.43810377	0.036714974	1.0447389	0.4387273	0.031134588	1.2352316	0.80287494	-0.13467093	1.1668043	0.78767427	0.20850417	1.2959502	0.8500302	-0.079329416	1.2780736	0.83678506	0.16876454	1.1038148	0.91769817	0.037904594	1.2050167	1.3225579	-0.14242752	1.2370239	1.3196183	0.21678564	1.1455377	1.3588187	0.043922015	1.0794637	1.0368856	-0.18342097	1.2649577	0.9993177	0.31765534	1.1328139	0.8089932	-0.24513246	1.4985192	1.0420536	0.22748307
380	1.516	1.651938	0.12103079	-0.074122481	0.95428455	0.034995243	0.1163761	1.5254017	0.098217956	-0.085716682	0.84384751	0.11436081	0.13683036	1.5259976	0.11474788	-0.0019454808	0.87609592	0.12634771	0.052151985	1.4757371	0.039178091	-0.036670742	0.79115271	0.11930421	0.074471792	1.4099117	0.44890017	-0.086696804	1.0698912	0.43926294	0.16229813	1.3812808	0.43691594	0.036932037	1.0505171	0.43761449	0.031379879	1.2428542	0.80123512	-0.13493862	1.1761714	0.7859022	0.20827757	1.3032763	0.84827426	-0.079504111	1.2846962	0.83518202	0.16870485	1.110659	0.91612014	0.037244158	1.2114731	1.3208173	-0.14323281	1.2434259	1.3180758	0.21611431	1.1519724	1.3572442	0.043085681	1.0855953	1.035406	-0.18391952	1.2711734	0.99776883	0.31722207	1.1376938	0.80734333	-0.24584695	1.5044817	1.0408736	0.22673778
381	1.52	1.6582845	0.11904988	-0.072471928	0.95454085	0.034973819	0.11653344	1.531827	0.096335848	-0.084913002	0.84554485	0.11591868	0.1374977	1.5319892	0.11285467	-0.0011563163	0.87796108	0.12751974	0.052893394	1.4818426	0.03718332	-0.036002999	0.79288146	0.12178932	0.075217688	1.4174495	0.44812916	-0.08627354	1.0757338	0.43816344	0.1624967	1.3878337	0.43595563	0.037076559	1.056474	0.43643196	0.031679206	1.2504458	0.79964819	-0.13524821	1.1848407	0.78413828	0.20776684	1.3106184	0.8465207	-0.079689852	1.2914515	0.83360741	0.16863172	1.1173949	0.91456895	0.036303472	1.2179599	1.3190974	-0.14406361	1.2498531	1.3165367	0.21541555	1.1584329	1.3556586	0.042236277	1.0918116	1.0339328	-0.18444114	1.2772781	0.99622796	0.31676245	1.1427498	0.80569193	-0.24656901	1.510375	1.0395469	0.22601358
382	1.524	1.6639949	0.11656558	-0.070708388	0.95478604	0.034940667	0.11670529	1.537571	0.094128691	-0.084108068	0.84734011	0.11755151	0.13821062	1.537293	0.11061735	-0.00037247531	0.87997765	0.12873573	0.053691692	1.4871904	0.034853605	-0.035167874	0.79477572	0.12438361	0.075979802	1.4249587	0.44731713	-0.085895159	1.0817514	0.43701502	0.16272713	1.394676	0.43516098	0.037175964	1.0626188	0.43516983	0.032026195	1.257996	0.79812555	-0.13562487	1.1927248	0.78242011	0.20695106	1.317982	0.84477417	-0.079896315	1.2980654	0.83206933	0.16847057	1.1239644	0.91305606	0.034967718	1.2244843	1.3173959	-0.14491608	1.2563026	1.3150045	0.2146904	1.1649199	1.3540641	0.041377474	1.0981189	1.0324729	-0.18497651	1.2832581	0.99469483	0.31626897	1.1479775	0.80403981	-0.24729676	1.5162007	1.0380699	0.22532109
